<svg id="visual" viewBox="0 0 900 600" width="900" height="600" xmlns="http://www.w3.org/2000/svg" xmlns:xlink="http://www.w3.org/1999/xlink" version="1.1"><rect x="0" y="0" width="900" height="600" fill="#222233"></rect><defs><linearGradient id="grad1_0" x1="33.3%" y1="0%" x2="100%" y2="100%"><stop offset="20%" stop-color="#222233" stop-opacity="1"></stop><stop offset="80%" stop-color="#222233" stop-opacity="1"></stop></linearGradient></defs><defs><linearGradient id="grad2_0" x1="0%" y1="0%" x2="66.7%" y2="100%"><stop offset="20%" stop-color="#222233" stop-opacity="1"></stop><stop offset="80%" stop-color="#222233" stop-opacity="1"></stop></linearGradient></defs><g transform="translate(900, 0)"><path d="M0 216.3C-38 210.8 -76 205.2 -108.2 187.3C-140.3 169.5 -166.6 139.3 -183.6 106C-200.6 72.7 -208.5 36.4 -216.3 0L0 0Z" fill="#8577ff"></path></g><g transform="translate(0, 600)"><path d="M0 -216.3C28.4 -194.6 56.7 -172.9 91 -157.6C125.3 -142.3 165.5 -133.4 187.3 -108.2C209.2 -83 212.8 -41.5 216.3 0L0 0Z" fill="#8577ff"></path></g></svg>