<svg id="visual" viewBox="0 0 900 600" width="900" height="600" xmlns="http://www.w3.org/2000/svg" xmlns:xlink="http://www.w3.org/1999/xlink" version="1.1"><rect x="0" y="0" width="900" height="600" fill="#222233"></rect><path d="M0 418L21.5 425.3C43 432.7 86 447.3 128.8 458.5C171.7 469.7 214.3 477.3 257.2 479.7C300 482 343 479 385.8 464C428.7 449 471.3 422 514.2 406.8C557 391.7 600 388.3 642.8 394.7C685.7 401 728.3 417 771.2 432.7C814 448.3 857 463.7 878.5 471.3L900 479L900 601L878.5 601C857 601 814 601 771.2 601C728.3 601 685.7 601 642.8 601C600 601 557 601 514.2 601C471.3 601 428.7 601 385.8 601C343 601 300 601 257.2 601C214.3 601 171.7 601 128.8 601C86 601 43 601 21.5 601L0 601Z" fill="#8577ff" stroke-linecap="round" stroke-linejoin="miter"></path></svg>